<svg width="76" height="401" viewBox="0 0 76 401" fill="none" xmlns="http://www.w3.org/2000/svg">
<mask id="path-1-outside-1_118_8226" maskUnits="userSpaceOnUse" x="-0.149902" y="0.660004" width="76" height="400" fill="black">
<rect fill="white" x="-0.149902" y="0.660004" width="76" height="400"/>
<path d="M55.9501 11.74H69.0001L69.0001 39.91H55.9501V11.74ZM31.2901 11.74H43.5301V39.01H31.2901V11.74ZM69.0001 1.66001V16.24L6.00011 16.24L6.00012 1.66L69.0001 1.66001Z"/>
<path d="M18.1501 54.978L29.7601 56.058L29.7601 87.288L18.1501 88.278L18.1501 54.978ZM45.8701 71.448L25.5301 62.628L22.2001 63.348L6.00011 55.518L6.00011 38.328L72.9601 71.448L6.00011 104.658L6.00011 87.378L21.5701 79.818L25.4401 80.358L45.8701 71.448Z"/>
<path d="M28.1401 118.19C25.8601 119.45 23.8801 120.86 22.2001 122.42C20.5201 124.04 19.2301 125.78 18.3301 127.64C17.4301 129.56 16.9801 131.57 16.9801 133.67C16.9801 135.89 17.5201 137.72 18.6001 139.16C19.7401 140.6 21.2701 141.32 23.1901 141.32C24.8101 141.32 26.1001 140.9 27.0601 140.06C28.0801 139.22 29.0401 137.87 29.9401 136.01C30.8401 134.15 31.8601 131.69 33.0001 128.63C33.5401 127.13 34.2901 125.39 35.2501 123.41C36.2101 121.49 37.4401 119.66 38.9401 117.92C40.5001 116.18 42.3601 114.74 44.5201 113.6C46.7401 112.46 49.4101 111.89 52.5301 111.89C56.2501 111.89 59.4601 112.85 62.1601 114.77C64.8601 116.75 66.9001 119.39 68.2801 122.69C69.7201 126.05 70.4401 129.77 70.4401 133.85C70.4401 138.05 69.7501 141.68 68.3701 144.74C66.9901 147.86 65.2501 150.44 63.1501 152.48C61.0501 154.52 58.9201 156.08 56.7601 157.16L50.2801 145.55C51.7801 144.65 53.0701 143.6 54.1501 142.4C55.2901 141.26 56.1601 139.97 56.7601 138.53C57.4201 137.15 57.7501 135.65 57.7501 134.03C57.7501 131.87 57.2701 130.22 56.3101 129.08C55.4101 127.94 54.2701 127.37 52.8901 127.37C51.4501 127.37 50.1901 127.91 49.1101 128.99C48.0301 130.13 47.0401 131.72 46.1401 133.76C45.2401 135.86 44.2801 138.38 43.2601 141.32C42.4201 143.54 41.4301 145.61 40.2901 147.53C39.2101 149.45 37.8901 151.13 36.3301 152.57C34.7701 154.07 32.9701 155.24 30.9301 156.08C28.8901 156.92 26.5501 157.34 23.9101 157.34C20.7301 157.34 17.8801 156.68 15.3601 155.36C12.9001 154.1 10.8301 152.36 9.15011 150.14C7.47011 147.98 6.21011 145.49 5.37011 142.67C4.47011 139.91 4.02011 137.06 4.02011 134.12C4.02011 130.04 4.74011 126.23 6.18011 122.69C7.68011 119.21 9.69011 116.18 12.2101 113.6C14.7301 111.02 17.4901 109.01 20.4901 107.57L28.1401 118.19Z"/>
<path d="M32.3701 171.74H46.0501L46.0501 219.44H32.3701L32.3701 171.74ZM69.0001 209.81V225.02H6.00011L6.00011 209.81H69.0001ZM69.0001 167.51V182.72H6.00011L6.00011 167.51H69.0001Z"/>
<path d="M69.0001 238.262V253.742H6.0001L6.0001 238.262H69.0001Z"/>
<path d="M37.5001 279.6C33.7801 279.6 30.4801 280.32 27.6001 281.76C24.7801 283.26 22.5601 285.33 20.9401 287.97C19.3201 290.67 18.5101 293.82 18.5101 297.42C18.5101 300.96 19.3201 304.05 20.9401 306.69C22.5601 309.39 24.7801 311.46 27.6001 312.9C30.4801 314.4 33.7801 315.15 37.5001 315.15C41.2201 315.15 44.4901 314.43 47.3101 312.99C50.1901 311.55 52.4401 309.51 54.0601 306.87C55.6801 304.23 56.4901 301.08 56.4901 297.42C56.4901 293.82 55.6801 290.67 54.0601 287.97C52.4401 285.33 50.1901 283.26 47.3101 281.76C44.4901 280.32 41.2201 279.6 37.5001 279.6ZM37.5001 263.49C42.3601 263.49 46.8001 264.33 50.8201 266.01C54.8401 267.75 58.3201 270.15 61.2601 273.21C64.2001 276.27 66.4501 279.87 68.0101 284.01C69.6301 288.15 70.4401 292.62 70.4401 297.42C70.4401 302.28 69.6301 306.75 68.0101 310.83C66.4501 314.97 64.2001 318.57 61.2601 321.63C58.3201 324.69 54.8401 327.06 50.8201 328.74C46.8001 330.42 42.3601 331.26 37.5001 331.26C32.6401 331.26 28.1701 330.42 24.0901 328.74C20.0101 327.12 16.4701 324.78 13.4701 321.72C10.4701 318.72 8.1301 315.15 6.4501 311.01C4.8301 306.87 4.0201 302.34 4.0201 297.42C4.0201 292.44 4.8301 287.88 6.4501 283.74C8.1301 279.6 10.4701 276 13.4701 272.94C16.4701 269.94 20.0101 267.6 24.0901 265.92C28.1701 264.3 32.6401 263.49 37.5001 263.49Z"/>
<path d="M69.0001 384.476V399.146H2.8501L41.4601 355.586L6.0001 355.586L6.0001 341.006H72.1501L33.5401 384.476H69.0001Z"/>
</mask>
<path d="M55.9501 11.74H69.0001L69.0001 39.91H55.9501V11.74ZM31.2901 11.74H43.5301V39.01H31.2901V11.74ZM69.0001 1.66001V16.24L6.00011 16.24L6.00012 1.66L69.0001 1.66001Z" stroke="black" stroke-width="2" mask="url(#path-1-outside-1_118_8226)"/>
<path d="M18.1501 54.978L29.7601 56.058L29.7601 87.288L18.1501 88.278L18.1501 54.978ZM45.8701 71.448L25.5301 62.628L22.2001 63.348L6.00011 55.518L6.00011 38.328L72.9601 71.448L6.00011 104.658L6.00011 87.378L21.5701 79.818L25.4401 80.358L45.8701 71.448Z" stroke="black" stroke-width="2" mask="url(#path-1-outside-1_118_8226)"/>
<path d="M28.1401 118.19C25.8601 119.45 23.8801 120.86 22.2001 122.42C20.5201 124.04 19.2301 125.78 18.3301 127.64C17.4301 129.56 16.9801 131.57 16.9801 133.67C16.9801 135.89 17.5201 137.72 18.6001 139.16C19.7401 140.6 21.2701 141.32 23.1901 141.32C24.8101 141.32 26.1001 140.9 27.0601 140.06C28.0801 139.22 29.0401 137.87 29.9401 136.01C30.8401 134.15 31.8601 131.69 33.0001 128.63C33.5401 127.13 34.2901 125.39 35.2501 123.41C36.2101 121.49 37.4401 119.66 38.9401 117.92C40.5001 116.18 42.3601 114.74 44.5201 113.6C46.7401 112.46 49.4101 111.89 52.5301 111.89C56.2501 111.89 59.4601 112.85 62.1601 114.77C64.8601 116.75 66.9001 119.39 68.2801 122.69C69.7201 126.05 70.4401 129.77 70.4401 133.85C70.4401 138.05 69.7501 141.68 68.3701 144.74C66.9901 147.86 65.2501 150.44 63.1501 152.48C61.0501 154.52 58.9201 156.08 56.7601 157.16L50.2801 145.55C51.7801 144.65 53.0701 143.6 54.1501 142.4C55.2901 141.26 56.1601 139.97 56.7601 138.53C57.4201 137.15 57.7501 135.65 57.7501 134.03C57.7501 131.87 57.2701 130.22 56.3101 129.08C55.4101 127.94 54.2701 127.37 52.8901 127.37C51.4501 127.37 50.1901 127.91 49.1101 128.99C48.0301 130.13 47.0401 131.72 46.1401 133.76C45.2401 135.86 44.2801 138.38 43.2601 141.32C42.4201 143.54 41.4301 145.61 40.2901 147.53C39.2101 149.45 37.8901 151.13 36.3301 152.57C34.7701 154.07 32.9701 155.24 30.9301 156.08C28.8901 156.92 26.5501 157.34 23.9101 157.34C20.7301 157.34 17.8801 156.68 15.3601 155.36C12.9001 154.1 10.8301 152.36 9.15011 150.14C7.47011 147.98 6.21011 145.49 5.37011 142.67C4.47011 139.91 4.02011 137.06 4.02011 134.12C4.02011 130.04 4.74011 126.23 6.18011 122.69C7.68011 119.21 9.69011 116.18 12.2101 113.6C14.7301 111.02 17.4901 109.01 20.4901 107.57L28.1401 118.19Z" stroke="black" stroke-width="2" mask="url(#path-1-outside-1_118_8226)"/>
<path d="M32.3701 171.74H46.0501L46.0501 219.44H32.3701L32.3701 171.74ZM69.0001 209.81V225.02H6.00011L6.00011 209.81H69.0001ZM69.0001 167.51V182.72H6.00011L6.00011 167.51H69.0001Z" stroke="black" stroke-width="2" mask="url(#path-1-outside-1_118_8226)"/>
<path d="M69.0001 238.262V253.742H6.0001L6.0001 238.262H69.0001Z" stroke="black" stroke-width="2" mask="url(#path-1-outside-1_118_8226)"/>
<path d="M37.5001 279.6C33.7801 279.6 30.4801 280.32 27.6001 281.76C24.7801 283.26 22.5601 285.33 20.9401 287.97C19.3201 290.67 18.5101 293.82 18.5101 297.42C18.5101 300.96 19.3201 304.05 20.9401 306.69C22.5601 309.39 24.7801 311.46 27.6001 312.9C30.4801 314.4 33.7801 315.15 37.5001 315.15C41.2201 315.15 44.4901 314.43 47.3101 312.99C50.1901 311.55 52.4401 309.51 54.0601 306.87C55.6801 304.23 56.4901 301.08 56.4901 297.42C56.4901 293.82 55.6801 290.67 54.0601 287.97C52.4401 285.33 50.1901 283.26 47.3101 281.76C44.4901 280.32 41.2201 279.6 37.5001 279.6ZM37.5001 263.49C42.3601 263.49 46.8001 264.33 50.8201 266.01C54.8401 267.75 58.3201 270.15 61.2601 273.21C64.2001 276.27 66.4501 279.87 68.0101 284.01C69.6301 288.15 70.4401 292.62 70.4401 297.42C70.4401 302.28 69.6301 306.75 68.0101 310.83C66.4501 314.97 64.2001 318.57 61.2601 321.63C58.3201 324.69 54.8401 327.06 50.8201 328.74C46.8001 330.42 42.3601 331.26 37.5001 331.26C32.6401 331.26 28.1701 330.42 24.0901 328.74C20.0101 327.12 16.4701 324.78 13.4701 321.72C10.4701 318.72 8.1301 315.15 6.4501 311.01C4.8301 306.87 4.0201 302.34 4.0201 297.42C4.0201 292.44 4.8301 287.88 6.4501 283.74C8.1301 279.6 10.4701 276 13.4701 272.94C16.4701 269.94 20.0101 267.6 24.0901 265.92C28.1701 264.3 32.6401 263.49 37.5001 263.49Z" stroke="black" stroke-width="2" mask="url(#path-1-outside-1_118_8226)"/>
<path d="M69.0001 384.476V399.146H2.8501L41.4601 355.586L6.0001 355.586L6.0001 341.006H72.1501L33.5401 384.476H69.0001Z" stroke="black" stroke-width="2" mask="url(#path-1-outside-1_118_8226)"/>
</svg>
