<svg width="75" height="93" viewBox="0 0 75 93" fill="none" xmlns="http://www.w3.org/2000/svg">
<path d="M14.3532 92.3837C6.42599 92.3837 0 85.9577 0 78.0305C0 69.422 6.97861 62.4434 15.5871 62.4434H28.7064V78.0305C28.7074 85.9567 22.2805 92.3837 14.3532 92.3837Z" fill="white"/>
<path d="M74.9999 31.4117C74.9999 45.2791 67.1196 57.2293 51.6412 61.1017C48.1987 61.9745 44.3872 62.4423 40.2077 62.4423H28.836V32.9359H28.7502C28.7502 32.9359 28.7383 32.9359 28.7253 32.9359C27.7906 32.8252 26.844 32.7763 25.8854 32.7763C12.4229 32.7763 1.37049 43.0547 0.128586 56.172V13.211C0.128586 5.91424 6.04385 0 13.3407 0H40.2087C63.2213 0 74.9999 12.9208 74.9999 31.4117Z" fill="#FEEB9D"/>
</svg>
